/* XPM */
static char *_762b0fa18d44c2f9d8cb2e83c5f88c58wJauFyIOMJf5tgR[] = {
/* columns rows colors chars-per-pixel */
"32 32 5 1 ",
"  c #442434",
". c #4E4A4E",
"X c #757161",
"o c #6DC2CA",
"O c #8595A1",
/* pixels */
"................................",
"................................",
"..OOOOXXOOOOOOXXOOOOOOXXOOOOOO..",
"..OOOOXXOOOOOOXXOOOOOOXXOOOOOO..",
"..OOOOXXOOOOOOXXOOOOOOXXOOOOOO..",
"..OOOOXXOOOOOOXXOOOOOOXXOOOOOO..",
"..ooooOOooooooOOooooooOOoooooo..",
"..ooooOOooooooOOooooooOOoooooo..",
"  XXXX..XXXXXX..XXXXXX..XXXXXX  ",
"  XXXX..XXXXXX..XXXXXX..XXXXXX  ",
"  ............................  ",
"  ............................  ",
"  XX..XX                XX..XX  ",
"  XX..XX                XX..XX  ",
"  XX..XX                XX..XX  ",
"  XX..XX                XX..XX  ",
"  ......                ......  ",
"  ......                ......  ",
"  XXXXXX                XXXXXX  ",
"  XXXXXX                XXXXXX  ",
"  ......                ......  ",
"  ......                ......  ",
"  XX..XX                XX..XX  ",
"  XX..XX                XX..XX  ",
"  XX..XX                XX..XX  ",
"  XX..XX                XX..XX  ",
"  ......                ......  ",
"  ......                ......  ",
"  XXXXXX    ........    XXXXXX  ",
"  XXXXXX    ........    XXXXXX  ",
"          ............          ",
"          ............          "
};
