/* XPM */
static char *_93ec82483d241e79914bb7ec7d26988XC0toThApqIDTzia[] = {
/* columns rows colors chars-per-pixel */
"32 32 5 1 ",
"  c None",
". c #140C1C",
"X c #757161",
"o c #6DAA2C",
"O c #DAD45E",
/* pixels */
"                                ",
"                                ",
"                                ",
"                                ",
"                                ",
"            ............        ",
"            ............        ",
"          ..ooooOOOOoooo..      ",
"          ..ooooOOOOoooo..      ",
"        ..ooOOOOOOOOOOOOoo..    ",
"        ..ooOOOOOOOOOOOOoo..    ",
"      XX..OOOOOOOOOOOO..OO..XX  ",
"      XX..OOOOOOOOOOOO..OO..XX  ",
"      XX..OOOOOOOO..OO..OO..XX  ",
"      XX..OOOOOOOO..OO..OO..XX  ",
"  XX....ooOOOOOOOO..OOOOOOoo....",
"  XX....ooOOOOOOOO..OOOOOOoo....",
"  ..ooOOooooOOOOOOOOOOOOooooOOoo",
"  ..ooOOooooOOOOOOOOOOOOooooOOoo",
"  ..ooooOOOOOOOOOOOOOOOOOOOOoooo",
"  ..ooooOOOOOOOOOOOOOOOOOOOOoooo",
"  XX......ooooOOOOOOOOoooo......",
"  XX......ooooOOOOOOOOoooo......",
"      XXXX................XXXX  ",
"      XXXX................XXXX  ",
"              XXXXXXXX          ",
"              XXXXXXXX          ",
"                                ",
"                                ",
"                                ",
"                                ",
"                                "
};
