/* XPM */
static char *_1d21b94844042d6d1b195909934f110RaAPy2cUPpjjtWDg[] = {
/* columns rows colors chars-per-pixel */
"64 64 207 2 ",
"   c None",
".  c #040015",
"X  c #060018",
"o  c #0D011B",
"O  c #0D0617",
"+  c #11051C",
"@  c #140D1C",
"#  c #170F1B",
"$  c #1A161D",
"%  c #1B191D",
"&  c #141319",
"*  c #221B1F",
"=  c #1D241B",
"-  c #1F281A",
";  c #232D1D",
":  c #23231C",
">  c #2A3C1E",
",  c #27341E",
"<  c #140522",
"1  c #160B22",
"2  c #1A0D27",
"3  c #1B1323",
"4  c #1D1525",
"5  c #0F0020",
"6  c #221B21",
"7  c #21152A",
"8  c #251B2C",
"9  c #281E2C",
"0  c #2B1C33",
"q  c #292925",
"w  c #352A25",
"e  c #2C3324",
"r  c #293623",
"t  c #3B3426",
"y  c #3A3229",
"u  c #313A25",
"i  c #2D2434",
"p  c #2E2934",
"a  c #312535",
"s  c #362B38",
"d  c #363135",
"f  c #3B343D",
"g  c #3A3A39",
"h  c #453F2B",
"j  c #41383F",
"k  c #2D421D",
"l  c #37571E",
"z  c #3F661F",
"x  c #2E4220",
"c  c #334322",
"v  c #394927",
"b  c #3C5C23",
"n  c #3E512D",
"m  c #3E4235",
"M  c #3C6120",
"N  c #4B422E",
"B  c #47472B",
"V  c #534B2E",
"C  c #415E25",
"Z  c #475A2A",
"A  c #444938",
"S  c #554E32",
"D  c #5F5934",
"F  c #5A5034",
"G  c #465531",
"H  c #426425",
"J  c #496826",
"K  c #55682C",
"L  c #457222",
"P  c #4C7425",
"I  c #4D7B23",
"U  c #56782A",
"Y  c #6D663A",
"T  c #656934",
"R  c #736C3A",
"E  c #7A713C",
"W  c #77703B",
"Q  c #607E2E",
"!  c #3C3440",
"~  c #443A44",
"^  c #4A4344",
"/  c #4B4944",
"(  c #544D4C",
")  c #56524D",
"_  c #55514A",
"`  c #5C5552",
"'  c #5F5A54",
"]  c #575051",
"[  c #615D54",
"{  c #635E58",
"}  c #605755",
"|  c #6B655C",
" . c #6D695C",
".. c #666059",
"X. c #716D5F",
"o. c #736E60",
"O. c #757162",
"+. c #7A7665",
"@. c #7C7966",
"#. c #7D7968",
"$. c #82783E",
"%. c #837C41",
"&. c #817D6A",
"*. c #528425",
"=. c #538C24",
"-. c #5D8D29",
";. c #578429",
":. c #599425",
">. c #599825",
",. c #4E8522",
"<. c #649D2A",
"1. c #6A9B2D",
"2. c #768837",
"3. c #749534",
"4. c #779734",
"5. c #6C8D32",
"6. c #5FA027",
"7. c #61A526",
"8. c #6AAB2A",
"9. c #67A62A",
"0. c #71A92E",
"q. c #6FB42B",
"w. c #72B42D",
"e. c #79BC2F",
"r. c #76AD30",
"t. c #78AF31",
"y. c #7CB332",
"u. c #7CBA31",
"i. c #7CC22F",
"p. c #86A839",
"a. c #91AD3E",
"s. c #83B436",
"d. c #84BC35",
"f. c #8AB539",
"g. c #92B93D",
"h. c #95B83E",
"j. c #87C534",
"k. c #93C43B",
"l. c #9AC93E",
"z. c #97D13B",
"x. c #A1D53F",
"c. c #868142",
"v. c #8C8544",
"b. c #8A8842",
"n. c #958C47",
"m. c #989248",
"M. c #979646",
"N. c #A19B4A",
"B. c #9CBC42",
"V. c #93A142",
"C. c #A9A74D",
"Z. c #A2BD45",
"A. c #A7B249",
"S. c #B4AE51",
"D. c #B8AF52",
"F. c #BBB154",
"G. c #BBB952",
"H. c #85826C",
"J. c #8A876F",
"K. c #8C8A71",
"L. c #C4BE57",
"P. c #C7BD58",
"I. c #9DC541",
"U. c #9ECB40",
"Y. c #A3CC42",
"T. c #AACB46",
"R. c #ABC348",
"E. c #A8C646",
"W. c #B4C54D",
"Q. c #B4CC4B",
"!. c #B8C94E",
"~. c #B3D14A",
"^. c #BBD34D",
"/. c #B7D84A",
"(. c #BDCB50",
"). c #BBC750",
"_. c #BED150",
"`. c #A4D641",
"'. c #C6C057",
"]. c #C5CD54",
"[. c #CACE57",
"{. c #CBC459",
"}. c #CECB59",
"|. c #C7C158",
" X c #D3CC5C",
".X c #D1C45C",
"XX c #CAD256",
"oX c #CDDA56",
"OX c #CED258",
"+X c #C2D252",
"@X c #D4D35B",
"#X c #DAD45E",
"$X c #D4DA5A",
"%X c #DDD95F",
"&X c #E0DE5F",
"*X c #DFE05E",
"=X c #DFD660",
"-X c #DFD960",
";X c #E1D761",
":X c #E3DB62",
">X c #E9DE64",
",X c #E6E062",
"<X c #EBE264",
"1X c #EEE865",
"2X c #F1E567",
"3X c #F2EC66",
"4X c #F4E868",
/* pixels */
"                                                                                                                                ",
"                                                                                                                                ",
"                                                                                                                                ",
"                                                                                                                                ",
"                                                                                                                                ",
"                                                                                                                                ",
"                                                                                                                                ",
"                                                                                                                                ",
"                                                                                                                                ",
"                                        o o o o + o o o X X X X X X X X o o o + o o o o                                         ",
"                                        + o + + + + + o o o o X O X o o o + o o + + + +                                         ",
"                                        $ % % % $ $ % % 6 * 6 6 6 6 6 * % % % % 4 % $ $                                         ",
"                                      = , k x k u k k v B V S F F F V B v u > k k x k , =                                       ",
"                                  X + q v H L L z L J U 2.b.n.m.m.n.v.2.U J L L L L z v ; + X                                   ",
"                                X X # > M :.<.6.>.:.1.p.A.G.P..X.XP.G.A.p.1.:.>.7.<.=.H r & X X                                 ",
"                                O @ q v U 0.u.i.w.w.s.I.].%X>X<X2X>X%X(.I.s.w.w.e.u.0.U v q # O                                 ",
"                              = = ; v U 3.f.U.z.k.k.I.~.oX&X1X2X3X<X,XoX~.I.k.k.l.l.f.3.U v , - %                               ",
"                          O $ ; k b U 5.V.E.^.^.Q.Q.!.XX$X%X:X>X>X,X%X@X+X!.Q.~.^.^.R.a.3.I l k ; % o                           ",
"                        X + % > M ,.9.f.Z.].OX@X@XOX@X X@X%X%X#X%X%X#X@X@XOX X@X$X@X].R.f.1.*.M > % + X                         ",
"                        o + 4 c I 9.d.Y.(.=X:X:X;X#X%X%X%X#X#X#X#X#X#X=X%X=X;X;X:X;X@X_.U.d.<.P c 4 + o                         ",
"                      i 1 o % B ;.f.U./.oX=X:X>X>X>X>X:X=X#X#X#X@X X=X=X;X,X>X>X>X>X=XOX/.x.s.Q v $ o 1 a                       ",
"                  #...~ 4 @ 6 B 2.Z.^.oX%X=X;X>X<X1X<X<X;X#X#X@X#X#X#X;X>X1X1X<X>X;X=X$XoX+XZ.2.B # 5 2 ~ X.K.                  ",
"                &.@.| ^ i 1 $ N v.G.$X*X-X@X=X-X:X,X<X:X-X#X@X#X@X#X#X-X:X,X<X,X;X-X=X%X*X%XG.c.h # + 8 ^ X.&.J.                ",
"                #.+.o.) p @ 6 V n.}.,X<X-X=X=X=X X X X X@X#X#X#X#X#X=X@X X X X X@X@X=X:X<X&X}.m.S * 3 i ] o.o.+.                ",
"                H.@.#.` p + 3 V n..X>X4X<X%X X'.S.C.N.S.P.@X=X:X;X=X X'.S.C.N.S.L.@X;X<X<X>X XN.T c , g / } ` }                 ",
"                K.&.#.` i 5 # N n.{.<X4X1X&X.XC.c.Y Y c.C.}.;X,X,X-X XC.c.Y Y c.C.}.;X<X<X>X XA.b.U b n A ~ s !                 ",
"                K.&.+.] i 5 3 N v.|.,X3X3X&X{.m.D y y D m.{.,X3X1X:X{.m.D y y D m.{.:X<X<X:X XW.f.9.*.H u 8 # <                 ",
"                +.O.| ( p 1 6 S n.{.:X3X3X:X{.v.h # 1 h v.'.,X3X3X,X|.v.h # 1 h v.{.:X1X<X;X@X!.l.u.<.P c % O .                 ",
"              f ( ] ) A d ; u T M. X>X4X4X,X'.%.y o X y %.|.,X3X3X,X|.%.y X X y %.'.,X2X>X&X@X^.U.d.9.,.l > - & O               ",
"J.H.O.) a + o < 8 i d g v M P 2.A.@X>X2X4X,XL.%.y X X y %.|.,X3X3X<XL.%.y X X y $.{.,X2X2X>X#X(.l.s.8.:.I z l , & o < 0 ] o.H.K.",
"H.&.o.( a < X X 5 < 4 u M *.1.B.).@X>X2X3X,X'.c.y X O y %.|.<X3X3X,XP.c.h X X y %.P.>X2X2X>X#X(.g.t.9.7.<.:.,.l ; O < 0 ( o.&.H.",
"@.+. ._ d 6 + O X o = x z 7.u.I.!.@X&X>X<X:X{.v.N 6 6 N v.{.:X3X3X,X|.v.N * 4 V v.{.:X>X>X&XOXW.g.w.9.q.w.w.9.P k % 1 0 (  .+.#.",
"| | ' _ N e w : w w h J -.8.u.j.Y.W.].@X&X;X.Xm.Y h h Y N.P.&X<X1X:X}.N.Y N N Y N.}.-X-X$X].W.B.s.0.8.w.j.k.f.1.J u e g / ' ..| ",
"^ ~ A A G C H K Y E $.2.1.8.q.e.d.g.Z.W.OX#X XL.m.$.$.n.D..X&X&X,X%X.XS.n.$.O.n.F. X#XOX).B.h.y.8.9.8.s.I.~.R.V.2.J b B A ^ ^ ^ ",
"8 8 q v H *.1.p.A.S.D.A.p.0.9.7.9.0.s.B.).@X X.XP.F.S.L..X X=X&X%X#X@X{.L.D.G.L..X#X@X).I.s.0.9.7.7.0.g.W.OXOXR.a.1.I H v q 8 8 ",
"o + $ k L <.u.l.+X@X#X+Xh.t.9.7.7.9.r.h.W.@X&X;X&X#X#X#X&X#X#X#X#X#X#X%X#X#X#X&X;X=X@XW.h.r.9.7.7.9.r.B.(.@X@X_.l.u.<.L u % + X ",
". . & > P 9.j.x.+XoXoX+XE.g.d.y.t.r.s.Z.).@X;X>X>X<X<X&X&X#X X=X#X#X#X&X&X,X,X<X>X;X@X).B.f.t.t.y.d.g.E.!.XXXX^.z.j.9.P > & . . ",
". . & k I 8.j.z.x.~././.~.Q.Q.E.E.E.R.W.{.#X>X>X>X&X>X&X=X#X=X X#X X#X=X&X&X<X&X>X;X=X[.).R.Z.E.R.T.Q.Q.Q.Q.T.U.z.j.8.I k & . . ",
". . & > I 8.i.j.j.j.k.Y.^.XX@X@XOX[.[. X#X;X;X;X&X&X&X%X#X#X#X#X X#X X&X=X&X&X&X;X;X;X#X X[.].}.$X$XOX^.Y.k.d.j.j.i.8.I k & . . ",
"O O % k I <.q.q.8.8.t.g.W. X&X&X%X#X#X#X#X#X#X#X X#X#X#X#X#X#X=X#X#X#X#X#X#X#X#X#X#X#X@X#X#X#X%X:X=X@XW.h.r.9.8.q.q.1.P c % O . ",
"9 9 p v K ;.-.:.,.,.=.5.M.C.L.P.{.[.oXoX[.+XXXOX#X&X&X&X&X=X&X&X&X&X&X;X&X&X#X@XOX[.].XXoXoX}.{.P.F.S.M.3.-.,.,.:.:.;.J v p 9 9 ",
"^ ~ A N G Z b b l l l Z D R $.n.A.R.~.T.T.E.Q.(.oX&X&X<X>X&X&X>X&X>X&X>X<X<X&X@X+XT.T.T.T.~.R.A.n.$.R D Z b b b b b Z Z A ^ ^ ^ ",
"X.| [ _ A e ; - - = : : : w h K 5.f.k.k.j.d.k.T.XX&X<X<X>X>X>X&X<X&X>X2X2X<X&XXXT.k.d.j.k.k.f.5.K h w q q q , ; : ; e g _ [ | | ",
"&.O.X._ d 4 + O O @ @ < + + % c U <.w.q.q.8.r.g.W.@X&X&X&X&X&X=X&X#X=X&X;X&X@XW.h.y.8.8.w.w.<.U c % + + + # @ + O # * d _  .+.&.",
"H.&.O.( a < o o 1 7 7 2 2 3 4 x M *.=.:.=.=.-.3.V.A.S.L.S.S.S.S.D.S.S.D.D.D.C.a.4.-.=.=.:.=.*.H u q < < + o o X . o @ s ( X.H.H.",
"J.J.O.)   o o 4 0 ! ~ ~ ~ ! g m n b M M b b b K T R E  .E W W W E R E E E $.W T K C b M M M b n A g s i 7 < X   . X < a ( O.J.J.",
"              j ( ` | X.| { ` / m e , ; ; q e e t y y y t t t t t h w w h t w w e e ; ; ; ; r A _ ' ` ] ~                       ",
"                o.o.#.&.#.+. ._ d 4 O O @ # # # # # # # # & @ @ # # # # O # # # # # # + O @ 4 g ` o.+.#.                        ",
"                &.#.@.&.H.&.o.) s @ X . X o o < 1 3 3 2 3 3 2 2 1 1 4 4 4 3 3 + + o o X . o 1 d ) X.H.K.                        ",
"                    &.H.J.H.O.) s < . . . . + 7 i d f ! f f f f ! f f ! ! f s i 7 o . . . X < s ) +.                            ",
"                                              f ( ) ....{ [ ' ' ' ' ' ' ..{ ) ( f                                               ",
"                                                 .o.+.#.+.O.O.O.O.O.O.+.#.@.X.X.                                                ",
"                                                &.#.@.@.@.@.@.@.#.#.#.@.@.@.@.&.                                                ",
"                                                  &.#.H.&.#.&.&.&.#.&.&.&.&.H.                                                  ",
"                                                                                                                                ",
"                                                                                                                                ",
"                                                                                                                                ",
"                                                                                                                                ",
"                                                                                                                                ",
"                                                                                                                                ",
"                                                                                                                                ",
"                                                                                                                                ",
"                                                                                                                                ",
"                                                                                                                                "
};
