/* XPM */
static char *_518a51cf9674963cbd89499b23b2ceel7MAh6Fom01i7RuP[] = {
/* columns rows colors chars-per-pixel */
"32 32 6 1 ",
"  c None",
". c #150C1D",
"X c #2F3471",
"o c #76715F",
"O c #8196A2",
"+ c #DAEFD4",
/* pixels */
"                                ",
"                                ",
"            ........            ",
"            ........            ",
"          ..OO++++OO..          ",
"          ..OO++++OO..          ",
"        ..OO++++++++OO..        ",
"        ..OO++++++++OO..        ",
"      ..OO++++++++++++OO..      ",
"      ..OO++++++++++++OO..      ",
"      ..OO++++++++++++OO..      ",
"      ..OO++++++++++++OO..      ",
"      ..OOXXXX++++XXXXOO..      ",
"      ..OOXXXX++++XXXXOO..      ",
"      ..OOXXXX++++XXXXOO..      ",
"      ..OOXXXX++++XXXXOO..      ",
"      ..OO++++++++++++OO..      ",
"      ..OO++++++++++++OO..      ",
"    ..OOOO++++++++++++OOOO..    ",
"    ..OOOO++++++++++++OOOO..    ",
"    ..++++++++++++++++++++..    ",
"    ..++++++++++++++++++++..    ",
"    ..OO++++++++++++++++OO..    ",
"    ..OO++++++++++++++++OO..    ",
"      ......OO++++OO......      ",
"      ......OO++++OO......      ",
"        oooo........oooo        ",
"        oooo........oooo        ",
"    oooooooooooooooooooooooo    ",
"    oooooooooooooooooooooooo    ",
"        oooooooooooooooo        ",
"        oooooooooooooooo        "
};
