/* XPM */
static char *dd7c9d8f9e2d481fc6182b627b4378fayBG7j55JopJhzhi6[] = {
/* columns rows colors chars-per-pixel */
"32 32 2 1 ",
"  c #346524",
". c #6DAA2C",
/* pixels */
"......  ........................",
"......  ........................",
"  ....  ........................",
"  ....  ........................",
"..  ..  ........................",
"..  ..  ........................",
"................................",
"................................",
"..........................  ....",
"..........................  ....",
"..........................  ..  ",
"..........................  ..  ",
"................................",
"................................",
"........  ......................",
"........  ......................",
"....  ..  ......................",
"....  ..  ......................",
"................................",
"................................",
"................................",
"................................",
"................................",
"................................",
"................................",
"................................",
"..................  ............",
"..................  ............",
"..............  ..  ....  ......",
"..............  ..  ....  ......",
"..............  ..  ..  ........",
"..............  ..  ..  ........"
};
