/* XPM */
static char *_a605c60d4c5480b8f5f229b7969c141gVm1ycWvRlgVb6HC[] = {
/* columns rows colors chars-per-pixel */
"32 32 6 1 ",
"  c None",
". c #140C1C",
"X c #30346D",
"o c #757161",
"O c #8595A1",
"+ c #DEEED6",
/* pixels */
"            ........            ",
"            ........            ",
"          ..OO++++OO..          ",
"          ..OO++++OO..          ",
"        ..OO++++++++OO..        ",
"        ..OO++++++++OO..        ",
"      ..OO++++++++++++OO..      ",
"      ..OO++++++++++++OO..      ",
"      ..OO++++++++++++OO..      ",
"      ..OO++++++++++++OO..      ",
"      ..OOXXXX++++XXXXOO..      ",
"      ..OOXXXX++++XXXXOO..      ",
"      ..OOXXXX++++XXXXOO..      ",
"      ..OOXXXX++++XXXXOO..      ",
"      ..OO++++++++++++OO..      ",
"      ..OO++++++++++++OO..      ",
"    ..OOOO++++++++++++OOOO..    ",
"    ..OOOO++++++++++++OOOO..    ",
"    ..OO++++++++++++++++OO..    ",
"    ..OO++++++++++++++++OO..    ",
"    ..OO++++++++++++++++OO..    ",
"    ..OO++++++++++++++++OO..    ",
"      ..OO++OO....OO++OO..      ",
"      ..OO++OO....OO++OO..      ",
"        ......    ......        ",
"        ......    ......        ",
"          oooooooooooo          ",
"          oooooooooooo          ",
"        oooooooooooooooo        ",
"        oooooooooooooooo        ",
"          oooooooooooo          ",
"          oooooooooooo          "
};
