/* XPM */
static char *_531887f643a4161800e964041456b37GBh9F3EjcSyCItjx[] = {
/* columns rows colors chars-per-pixel */
"32 32 5 1 ",
"  c None",
". c #140C1C",
"X c #757161",
"o c #6DAA2C",
"O c #DAD45E",
/* pixels */
"                                ",
"                                ",
"                                ",
"                                ",
"                                ",
"        ............            ",
"        ............            ",
"      ..ooooOOOOoooo..          ",
"      ..ooooOOOOoooo..          ",
"    ..ooOOOOOOOOOOOOoo..        ",
"    ..ooOOOOOOOOOOOOoo..        ",
"  XX..OO..OOOOOOOOOOOO..XX      ",
"  XX..OO..OOOOOOOOOOOO..XX      ",
"  XX..OO..OO..OOOOOOOO..XX      ",
"  XX..OO..OO..OOOOOOOO..XX      ",
"....ooOOOOOO..OOOOOOOOoo....XX  ",
"....ooOOOOOO..OOOOOOOOoo....XX  ",
"ooOOooooOOOOOOOOOOOOooooOOoo..  ",
"ooOOooooOOOOOOOOOOOOooooOOoo..  ",
"ooooOOOOOOOOOOOOOOOOOOOOoooo..  ",
"ooooOOOOOOOOOOOOOOOOOOOOoooo..  ",
"......ooooOOOOOOOOoooo......XX  ",
"......ooooOOOOOOOOoooo......XX  ",
"  XXXX................XXXX      ",
"  XXXX................XXXX      ",
"          XXXXXXXX              ",
"          XXXXXXXX              ",
"                                ",
"                                ",
"                                ",
"                                ",
"                                "
};
