/* XPM */
static char *result[] = {
/* columns rows colors chars-per-pixel */
"32 32 5 1 ",
"  c #140C1C",
". c #757161",
"X c #6DAA2C",
"o c #DAD45E",
"O c None",
/* pixels */
"OOOOOOOOOOOOOOOOOOOOOOOOOOOOOOOO",
"OOOOOOOOOOOOOOOOOOOOOOOOOOOOOOOO",
"OOOOOOOOOOOOOOOOOOOOOOOOOOOOOOOO",
"OOOOOOOOOOOOOOOOOOOOOOOOOOOOOOOO",
"OOOOOOOOOO            OOOOOOOOOO",
"OOOOOOOOOO            OOOOOOOOOO",
"OOOOOOOO  XXXXooooXXXX  OOOOOOOO",
"OOOOOOOO  XXXXooooXXXX  OOOOOOOO",
"OOOOOO  XXooooooooooooXX  OOOOOO",
"OOOOOO  XXooooooooooooXX  OOOOOO",
"OOOO..  oooooooooooooooo  ..OOOO",
"OOOO..  oooooooooooooooo  ..OOOO",
"OOOO..  oooo  oooo  oooo  ..OOOO",
"OOOO..  oooo  oooo  oooo  ..OOOO",
"OOOO  XXoooo  oooo  ooooXX  OOOO",
"OOOO  XXoooo  oooo  ooooXX  OOOO",
"..  XXXXooooooooooooooooXXXX  ..",
"..  XXXXooooooooooooooooXXXX  ..",
"  XXooooXXooooooooooooXXooooXX  ",
"  XXooooXXooooooooooooXXooooXX  ",
"  XXXXooooooooooooooooooooXXXX  ",
"  XXXXooooooooooooooooooooXXXX  ",
"..      XXXXooooooooXXXX      ..",
"..      XXXXooooooooXXXX      ..",
"OOOO....                ....OOOO",
"OOOO....                ....OOOO",
"OOOOOOOOOOOO........OOOOOOOOOOOO",
"OOOOOOOOOOOO........OOOOOOOOOOOO",
"OOOOOOOOOOOOOOOOOOOOOOOOOOOOOOOO",
"OOOOOOOOOOOOOOOOOOOOOOOOOOOOOOOO",
"OOOOOOOOOOOOOOOOOOOOOOOOOOOOOOOO",
"OOOOOOOOOOOOOOOOOOOOOOOOOOOOOOOO"
};
