/* XPM */
static char *_ceda74a21ab472ffec433ae4c848e14dokWzQIZpgpep1C4[] = {
/* columns rows colors chars-per-pixel */
"32 32 6 1 ",
"  c None",
". c #442434",
"X c #346524",
"o c #757161",
"O c #854C30",
"+ c #6DAA2C",
/* pixels */
"          XXXXXXXXXXXX          ",
"          XXXXXXXXXXXX          ",
"      XXXXXXXX++XX++XXXXXX      ",
"      XXXXXXXX++XX++XXXXXX      ",
"    XXXXXX++++++++++++XXXXXX    ",
"    XXXXXX++++++++++++XXXXXX    ",
"    ....XXXX++++++++XXXXXX..    ",
"    ....XXXX++++++++XXXXXX..    ",
"  ....XXXX++XX++++XX++XXXXXX..  ",
"  ....XXXX++XX++++XX++XXXXXX..  ",
"  ..XX..XXXXXX++XXXXXXXX......  ",
"  ..XX..XXXXXX++XXXXXXXX......  ",
"  ....XXXX..XXXXXXXX..XXXX....  ",
"  ....XXXX..XXXXXXXX..XXXX....  ",
"  XX......XXXX..XXXXXX..XX..XX  ",
"  XX......XXXX..XXXXXX..XX..XX  ",
"  ..XXXX..XX....XX............  ",
"  ..XXXX..XX....XX............  ",
"    ........XX......XX..XX..    ",
"    ........XX......XX..XX..    ",
"      ......XX........XX..      ",
"      ......XX........XX..      ",
"      oooooo....OO..oooooooo    ",
"      oooooo....OO..oooooooo    ",
"    oooooooo..OOOO..oooooooooo  ",
"    oooooooo..OOOO..oooooooooo  ",
"    oooooo..OOOOOO....oooooooo  ",
"    oooooo..OOOOOO....oooooooo  ",
"      ooooooOO..OOOOoooooooo    ",
"      ooooooOO..OOOOoooooooo    ",
"        oooooooooooooooo        ",
"        oooooooooooooooo        "
};
