/* XPM */
static char *b3db0b196b684a018d6952bc99982ff9yU08laod93jZWeyM[] = {
/* columns rows colors chars-per-pixel */
"32 32 5 1 ",
"  c None",
". c #140C1C",
"X c #757161",
"o c #6DAA2C",
"O c #DAD45E",
/* pixels */
"                                ",
"                                ",
"                                ",
"                                ",
"          ............          ",
"          ............          ",
"        ..ooooOOOOoooo..        ",
"        ..ooooOOOOoooo..        ",
"      ..ooOOOOOOOOOOOOoo..      ",
"      ..ooOOOOOOOOOOOOoo..      ",
"    XX..OOOOOOOOOOOOOOOO..XX    ",
"    XX..OOOOOOOOOOOOOOOO..XX    ",
"    XX..OOOOOOOOOOOOOOOO..XX    ",
"    XX..OOOOOOOOOOOOOOOO..XX    ",
"    ..ooOOOOOOOOOOOOOOOOoo..    ",
"    ..ooOOOOOOOOOOOOOOOOoo..    ",
"XX..ooooOOOOOOOOOOOOOOOOoooo..XX",
"XX..ooooOOOOOOOOOOOOOOOOoooo..XX",
"..ooOOOOooOOOOOOOOOOOOooOOOOoo..",
"..ooOOOOooOOOOOOOOOOOOooOOOOoo..",
"..ooooOOOOOOOOOOOOOOOOOOOOoooo..",
"..ooooOOOOOOOOOOOOOOOOOOOOoooo..",
"XX......ooooOOOOOOOOoooo......XX",
"XX......ooooOOOOOOOOoooo......XX",
"    XXXX................XXXX    ",
"    XXXX................XXXX    ",
"            XXXXXXXX            ",
"            XXXXXXXX            ",
"                                ",
"                                ",
"                                ",
"                                "
};
