/* XPM */
static char *bab86d11f89f4995f33543c3d7e70445dtMdUjjNBiBG6iC1[] = {
/* columns rows colors chars-per-pixel */
"64 64 47 1 ",
"  c #7F4830",
". c #8F532F",
"X c #90532F",
"o c #93552F",
"O c #95562F",
"+ c #98582F",
"@ c #9A5A2F",
"# c #9C5B2F",
"$ c #9D5B2F",
"% c #9E5C2F",
"& c #804930",
"* c #814A30",
"= c #834B30",
"- c #844B30",
"; c #854C30",
": c #874E30",
"> c #894F30",
", c #8A4F30",
"< c #8B5030",
"1 c #8C5030",
"2 c #8C5130",
"3 c #A05D2F",
"4 c #A15E2F",
"5 c #A4602E",
"6 c #AF672E",
"7 c #B0672E",
"8 c #B3692E",
"9 c #B56B2D",
"0 c #B66B2D",
"q c #B46A2E",
"w c #B76C2D",
"e c #B86C2D",
"r c #BA6E2D",
"t c #BB6E2D",
"y c #C4742D",
"u c #CB782C",
"i c #CB792C",
"p c #CE7B2C",
"a c #CF7B2C",
"s c #D07C2C",
"d c #D17C2C",
"f c #D37E2C",
"g c #D6802C",
"h c #DF852B",
"j c #DA822C",
"k c #DB832C",
"l c #E1872B",
/* pixels */
" *,4rfkllks9$,,Oqufkkgiq@-,@qifljfiq@*,@8pfkkgiq@-,@qifljfu9#1**",
" *14rpkhhkp9+,,+qigjkgiq@,;@qigjjjiq@,;@8igkkgiq@,;@qigjjgp9%1* ",
"**1$8ypffpy6O,,+qigkkgpq+,,@8pgkjgpq@,,@8pjkkgpq@,,@8pgkkgpr%,* ",
"**,O58wrr964.*.$9pgkkgiq@;,@8pgkjgiq@;,@8pfkkgiq@;,@8pgkkgiq4,* ",
"--;1O++$O$Oo;=<$wigjjgiq+,,+qugkkfp8+-,+qufkkju8+,,+8pjjjgiw%1* ",
";;;,,;<;<;<*; o+9igjkfiq+,,@qufjkfp8#,,@qpfklfu8+,,@8ufjkgiw%1* ",
";;;;;;1<<;<***<+rigkkgiq+-,+qifjkju8@-,+8ufkffu8+*,+8ifjkgiw4<* ",
"--;1o++$$$O1,*<5qpgkkgiq#,,@qijjkfp8+,,+8pjkkju0#,,+8pjjkgiw%<* ",
"*-,O47eerw64.;,$qpfkkgiq@,,@8igkkfp8@,,+8pfjkfs8@<;@qigkkgiw4<* ",
"**,49yssfpy6+;,+qigjkguq@,;@8pgjkjp8@--@8pfjlfs8@;<@qigkkgiw%<* ",
"**,4tpjlhjp9+<,+qifjkgpq+,-@9ijjjjiq@,,@qpjkkfu9@;:@qigkkgpw4<* ",
"&&,4tsjllhpw$;,+qpgjkgiq+,,@qifkjfiq@,;@9pkllfpe@<;@qigkkgi9%<* ",
"&*,4rpjlhjpw+<;+qifljjuq+,*@qifjkfiq@-,#9sjllks9%=<@qigkjgiw4<  ",
" *,39pfljgi8+1<$qigjjfuq@,,+qijjjjp9@,;@9sjlljp8@,;@qigjkgiw%<* ",
"&*,4wigkhfi9O,;+8pgkjfp8+,,+8pjkjgp8@,-@8ypfssy8+<,@qigkkgiw4<* ",
" *,49pgkjgir+;<$8pgjjjp8+,,+8pfkkgi8@,;X#89eee8%1*,@wigkkgiw41* ",
" *,49ufkkgpq@,,+8ujjkgp8+,,+8sfkjgp9$,-;,#@####,<*,%9pfjjgi9#1**",
" *,4euflkfpq@*,+8pfjkgp8+,-@8ujklfiw41**;-,,,-,- *,49ijjkgir41* ",
" *,$rufkkjp8@,-@8ifjjgiq@,,#8pfkjfi9$1***,-,-,--**<%eigkkgp9%,* ",
" *,4rugkjfi8+,,@8pjjlfiq+,*+8pfkjgir$1*-X@####@,,*<%9pgkkgi9%,* ",
" *<%9ughkfp8@,,#qigkjgpq@,;@qigkkgp9#1*O#69rr9641;,@9pgkjgiw4<* ",
" *<59ugjkjp8+<*+qpgkjfuq@,,@qpgkkgu9+,-+8ypffpy6+,,@8igkkgiw%1* ",
" *<$wigkjfp8#,,+qigkkgiq@-,@qigjkgi8+,,+9sjlljp9@,,@8ifkkgiw%<* ",
" *1$wigkjfp8@-,+qigkkfiq@,-@qifjkfi8+,,#9sjlljfe#-;@9ugkkgiw4<* ",
" *<%wigkkgi8+,,+qifkkgpq@-,@qiflkgi9@,;#wpjlljp9@1;@qigkkgiw%<* ",
" *<4wigkkgi9@;,+qigkkgiq@,-@qigjkgi8@--#8igkkfi9@;1@qpgkkgiw%1* ",
" *<%wigkkgi8@,,@qigkkguq@-,@8pgkkgp8@,,#8igkkjp8@<;@qigkkgpw4<* ",
" *<%wigkkgi9+,;@qpgkkfuq+,,@8pgjkgi9@-,@8pgkkfu8@;;@qigkkgi9%<* ",
" *<%wigkkgiq@;<@qijjkfpq#,,+8pjjjfuq@-,+qifjjfuq@;<+qifkjgiw4<* ",
" *<4wigkkgiq@<;@qifkkju8@-,+8pfjjfpq@,,@qijjjfpq@<,@qigkkgiw%<* ",
" *<%wigkkgiq@=<@qifkkfp9+,-@qufjkju9@-,+qijkkjuq@*,+qigkkgiw4<* ",
" *<4wigkkgiq@<=%9pklljp9#,,+qujjkfp9+,,+qpfkkfpq@,,+qpgkkgiw%<* ",
" *<%9igklfu8@;,@esjlljs9%;,@qijkkjiq@-,+qifkkgiq@-,@8pfjjfu9#1**",
" *<4wpgkjfi9@,;@9pjlljs9@,;@qpfkkfiq@,,@qigkkgiq@,-@8ujjjjp941* ",
" *<%wigkjfiq@,,@8ysffpy6@;;@qufkkjpq+,-@qigkkgpq@,,@8sjkkgp9%,* ",
" *1%wigkkgp9@,;1#69rr984X;,@9ijkkfiq+,,@qpgkkgiq@;,@8pfkkgp9%,* ",
" *<%eifjkgp9%<*,,+##%@@X,*,#9pfkjjp8+-,+qifkjgiq+,,+8pfkkfpr4<* ",
" *<49ijjkgie%<**-,,-;,;***,49ifkjfp8#,,#qigklfiq+,,+8pfkkfi9%1* ",
" *<%9pgkjji9%1**;-,;;,;;**,%9pgjjfp8+,-@qugkjfiq+*,+8pfkkjp94<* ",
" *1%9pgjjfp9%1*,X+%##@@1,*1%9pgjkfu8+,,+qpgkjgiq#,,@8pklljpr41* ",
" *<%wigjkfp9@,;1#8eere8#X-,#9ujjkffq+,,+8pfjkgpq+,,#epjlljst4,*&",
" *<4wigkkjp8@-;@8ypsssy8+,,@8pfjkju8+,-@8pfjjjiq+;,+9sjlljpr4,*&",
" *<%9igkkfue@1;#9sjllkp9#-,#8ufljgiq@,,#8pjkkfp8#,,@8ypffsy9#,*&",
" *<4wpgkkfu8@;1@eskllks9#,-+qugjlfiq+,-+8pfkkfu9+,;1%6rre984+,-*",
" *<%wigjkfp8+;X#esflkla8#,-@7pfkjfiq@,-@8pgkkgu9@,*;X@++##@+,,--",
"  <4wigkkjp9#--+8afkkfu8@-,+9sjkjguq@-,@qpfjkgp94X***,,,;-*,----",
" *<%9igkkfu8+,,+8ufllfu8+,,@8ujkkgpq@-,@qifjkgp94,**;;1-,;--,---",
" *<4wpgkkfpe+,,+euflffue@,-@qpfkkgiq@,,@qijjkgp9#,-;,@##@4++,,--",
" *14wigkkgiq@::@qigkkgiq@;,@9ufkjfp8@-,@qigkjji9#,*+@89rr974+,;-",
" *;4wigkkgiq@:;@qigkkgiq@<;@8ufkkfp8@,-@qpgkjfiq@,*+8ypffsy7#,*&",
"  14wigkkgiq@;<@qigkkgiq@,,@9ufjkju8@,,@qigkjgiq@,,+epfllfst%,*&",
"  <4wigkkgiq@<;@9igkkgiq@;,@esklljp9@,,@qigkkgiq+-,#efkllkft4,&&",
" =<4wigkjfiq@<=@8igkkgi8+,;#rskllkse%;,@qifjkgpq+,,+epkllkst4,--",
"  2@wigkjfpq@<<+9igkkgi8@;,@9pkkkkpe@-;@qiflkfiq+,,+9pfllfu94,*&",
"  24wigkkjiq@;<+8igkkgi8@,*@8ypffsy8@*-@qifklfiq+-,#7pfkffu94,*&",
" =24wigkkfpq@;<+8igkkgiw#,;X469re98#+;1#qpgkjfiq#,;@9ufkkfse#,&&",
" *<%9ifkkjiq@;,+9igkkgiw#,-;X+#+#@+1,*,#9pfkkjiq@,;@8igkkku9#,-&",
" *<4rijjkfiq@,,@8igjkgiw#,- -;,,-,,*&*,49ufkkfuq@;,@9pgkkfs9%,*&",
" *1%9pjjkgpq+,;@8igkkgiw4X**-,,,,-,-**,%epjkkgp8@,,@8igkkfse#,*&",
" *1#9ufjkgiq+,,+8pgkkgiw#,-;1++###+X,*,%9pfkkgpq@;-@9igkkkue4,&&",
" *<%epfljju8+-,@8ifjjgp9@;;O#7rrr964,-,+9ifkkfp8@*,+9ifjkfp94,-&",
" *<49ifkjfp8#,,#9ijjkfi9+1;+7ypsfpy6@,,#qufkkfp8#,,@9ijjkfue#,*&",
" *<%9pgkjfp8+,*@8igkkgi8O<,+9sjlljpe@,-+8pjkkju8@-,+8ijkkjp9#,*&",
" *1%9pgjjjp8+,,+8pgkkgir+;,$esjlljst#-,%8pfkkfp9+,,+8pfkkfut4,&&"
};
